<svg width="1223" height="134" viewBox="0 0 1223 134" fill="none" xmlns="http://www.w3.org/2000/svg">
<path d="M3.98279 131.582L35.7731 71.1347C64.3279 16.8389 142.381 17.7456 169.667 72.6899L173.308 80.0201C196.925 127.577 262.722 132.779 293.518 89.5235C316.495 57.2511 361.59 50.3342 393.184 74.2364L404.4 82.7221C439.94 109.61 490.599 102.273 517.051 66.4079L537.381 38.843C577.55 -15.6215 663.054 1.74446 678.794 67.5639C692.957 126.794 765.697 148.801 810.32 107.357L845.406 74.7706C870.231 51.7133 909.855 56.6494 928.265 85.0928C953.622 124.271 1013.28 115.545 1026.36 70.7466L1032.22 50.6646C1046.24 2.61663 1107.47 -11.5274 1141.15 25.501L1218.98 111.082" stroke="#FF7051" stroke-width="9"/>
</svg>
