<svg width="531" height="680" viewBox="0 0 531 680" fill="none" xmlns="http://www.w3.org/2000/svg">
<path d="M310.135 679.996C298.91 679.996 289.185 676.663 280.408 669.799C272.856 663.892 266.895 656.128 261.132 648.619C250.095 634.236 239.669 620.653 219.043 620.653C198.417 620.653 187.99 634.24 176.953 648.619C171.191 656.128 165.229 663.896 157.677 669.799C148.901 676.663 139.176 679.996 127.95 679.996C109.076 679.996 98.6107 678.174 90.6296 673.493C82.5159 668.734 77.6219 661.211 70.8477 650.798C67.1292 645.079 62.9119 638.6 57.1389 630.843C46.995 617.214 38.229 607.691 31.1898 600.042C12.3183 579.539 2.84768 569.251 2.84768 523.578C2.84768 491.213 18.5448 475.015 33.7292 459.347C48.345 444.266 62.148 430.019 62.148 401.194C62.148 372.369 48.3415 358.122 33.7292 343.041C18.5483 327.373 2.84768 311.175 2.84768 278.81C2.84768 246.444 18.5448 230.246 33.7292 214.578C48.345 199.497 62.148 185.25 62.148 156.425C62.148 130.522 44.9439 110.494 28.305 91.1258C17.8367 78.9422 7.951 67.4324 3.09186 55.1056C-2.58352 40.7261 -0.459169 27.1845 9.57654 13.7022C14.3834 7.24385 20.0936 3.59923 26.5434 2.86612C40.9429 1.23582 56.4482 14.4318 72.8674 28.4029C89.9076 42.9045 109.222 59.3437 127.943 59.3437C148.566 59.3437 158.992 45.7567 170.033 31.3772C175.795 23.868 181.757 16.1005 189.309 10.1972C198.085 3.33391 207.811 0 219.036 0C230.261 0 239.986 3.33741 248.763 10.1972C256.315 16.104 262.276 23.868 268.039 31.3772C279.076 45.7602 289.502 59.3437 310.128 59.3437C330.754 59.3437 341.177 45.7602 352.217 31.3772C357.98 23.868 363.941 16.1005 371.493 10.1972C380.27 3.33391 389.995 0 401.22 0C420.095 0 430.56 1.82231 438.541 6.50375C446.655 11.262 451.549 18.7851 458.323 29.1988C462.042 34.9171 466.259 41.3964 472.032 49.1569C482.176 62.7858 490.942 72.3093 497.981 79.9581C516.852 100.461 526.323 110.752 526.323 156.422C526.323 188.787 510.626 204.985 495.442 220.653C480.826 235.734 467.023 249.977 467.023 278.806C467.023 307.635 480.829 321.878 495.442 336.959C510.622 352.627 526.323 368.825 526.323 401.19C526.323 431.835 508.393 450.71 492.574 467.363C475.028 485.834 459.875 501.784 467.979 530.466C476.354 560.108 493.488 579.49 507.256 595.067C517.222 606.34 525.828 616.076 529.34 627.118C533.307 639.581 530.206 652.03 519.587 666.298C514.78 672.756 509.07 676.401 502.62 677.134C488.228 678.768 472.716 665.572 456.296 651.597C439.256 637.095 419.942 620.656 401.22 620.656C380.598 620.656 370.171 634.24 359.131 648.623C353.368 656.132 347.407 663.899 339.855 669.803C331.078 676.666 321.353 680 310.128 680L310.135 679.996ZM219.039 611.922C230.264 611.922 239.99 615.259 248.766 622.119C256.318 628.026 262.28 635.79 268.042 643.299C279.079 657.682 289.506 671.265 310.132 671.265C330.758 671.265 341.181 657.678 352.221 643.299C357.983 635.79 363.945 628.022 371.497 622.119C380.273 615.256 389.999 611.922 401.224 611.922C423.151 611.922 443.763 629.464 461.947 644.943C476.884 657.657 491.005 669.663 501.64 668.459C505.655 668.001 509.241 665.589 512.597 661.082C531.51 635.671 519.926 622.562 500.726 600.848C486.369 584.608 468.505 564.399 459.586 532.84C450.129 499.375 468.495 480.042 486.254 461.347C501.665 445.125 517.602 428.347 517.602 401.19C517.602 372.362 503.796 358.118 489.184 343.037C474.003 327.369 458.302 311.171 458.302 278.806C458.302 246.441 473.999 230.243 489.184 214.575C503.799 199.494 517.602 185.247 517.602 156.422C517.602 114.156 509.981 105.875 491.566 85.8683C484.387 78.0694 475.454 68.3644 465.038 54.3689C459.097 46.3884 454.615 39.4972 451.012 33.9604C444.66 24.1996 440.467 17.7482 434.129 14.0338C427.7 10.2635 418.166 8.72742 401.217 8.72742C380.591 8.72742 370.164 22.3144 359.128 36.6939C353.365 44.2031 347.404 51.9706 339.851 57.8739C331.075 64.7372 321.35 68.0711 310.125 68.0711C298.899 68.0711 289.174 64.7337 280.398 57.8739C272.846 51.9671 266.884 44.2031 261.122 36.6939C250.085 22.3109 239.658 8.72742 219.032 8.72742C198.406 8.72742 187.983 22.3109 176.943 36.6939C171.18 44.2031 165.219 51.9706 157.667 57.8739C148.89 64.7372 139.165 68.0711 127.94 68.0711C106.013 68.0711 85.4007 50.5288 67.2164 35.0496C52.2798 22.3355 38.1698 10.3229 27.5271 11.5378C23.5121 11.9951 19.9262 14.4074 16.5705 18.9143C-0.570793 41.948 12.3706 59.1936 34.9117 85.432C51.7635 105.048 70.8652 127.282 70.8652 156.422C70.8652 188.787 55.168 204.985 39.9837 220.653C25.3679 235.734 11.5648 249.981 11.5648 278.81C11.5648 307.638 25.3714 321.882 39.9837 336.963C55.1645 352.63 70.8652 368.829 70.8652 401.194C70.8652 433.559 55.168 449.757 39.9837 465.425C25.3679 480.506 11.5648 494.753 11.5648 523.578C11.5648 565.844 19.1867 574.125 37.6012 594.132C44.78 601.931 53.7134 611.636 64.1294 625.631C70.0698 633.611 74.5523 640.503 78.1556 646.039C84.5077 655.8 88.7006 662.252 95.0388 665.966C101.468 669.736 111.001 671.272 127.95 671.272C148.573 671.272 158.999 657.685 170.04 643.306C175.802 635.797 181.764 628.029 189.316 622.126C198.092 615.263 207.818 611.929 219.043 611.929L219.039 611.922Z" fill="#FF7051"/>
</svg>
